<svg xmlns="http://www.w3.org/2000/svg" viewBox="0 0 104 34">
  <path d="M41 28.86a3.26 3.26 0 0 0 2.29-.73 2.76 2.76 0 0 0 .83-2.13 2.62 2.62 0 0 0-.77-2 3 3 0 0 0-2.14-.72h-1.79v5.61Zm0-.77h-.68V24h.82a1.76 1.76 0 0 1 2 2A1.84 1.84 0 0 1 41 28.09Zm8.81.77v-.78h-2.28v-1.76h2.18v-.77h-2.18V24h2.32v-.77h-3.27v5.61Zm4.72 0 2-5.61h-1l-1.2 3.47q-.07.2-.18.57a6.16 6.16 0 0 0-.15.68c0-.13-.07-.33-.14-.59s-.14-.47-.2-.64l-1.21-3.49h-1l2 5.61Zm7.28 0v-.78h-2.29v-1.76h2.18v-.77h-2.18V24h2.33v-.77h-3.28v5.61Zm5.86 0v-.78h-2.41v-4.83h-1v5.61Zm4.48.08a2.59 2.59 0 0 0 2-.76 3 3 0 0 0 .7-2.13 3 3 0 0 0-.7-2.14 2.59 2.59 0 0 0-2-.75 2.67 2.67 0 0 0-2 .74 3 3 0 0 0-.68 2.1 3 3 0 0 0 .71 2.15 2.6 2.6 0 0 0 2.01.79Zm0-.78a1.54 1.54 0 0 1-1.28-.54 2.45 2.45 0 0 1-.43-1.57 2.45 2.45 0 0 1 .43-1.57A1.55 1.55 0 0 1 72.2 24a1.49 1.49 0 0 1 1.26.53 2.45 2.45 0 0 1 .43 1.57 2.46 2.46 0 0 1-.43 1.58 1.55 1.55 0 0 1-1.27.48Zm6.11.7v-2.1h.6a2.64 2.64 0 0 0 1.69-.47 1.63 1.63 0 0 0 .59-1.35 1.51 1.51 0 0 0-.54-1.26 2.55 2.55 0 0 0-1.6-.43h-1.65v5.61ZM78.8 26h-.5v-2h.7a1.52 1.52 0 0 1 1 .24.85.85 0 0 1 .31.73.87.87 0 0 1-.34.76 1.8 1.8 0 0 1-1.17.27Zm8 2.87v-.78h-2.3v-1.77h2.18v-.77H84.5V24h2.33v-.77h-3.28v5.61Zm3.41 0v-2.25h.93l1.39 2.24h1.07L92 26.38a1.54 1.54 0 0 0 1.12-1.5 1.45 1.45 0 0 0-.54-1.23 2.75 2.75 0 0 0-1.65-.4h-1.64v5.61Zm.65-3h-.65V24h.62a1.81 1.81 0 0 1 1 .21.76.76 0 0 1 .32.68.85.85 0 0 1-.3.71 1.54 1.54 0 0 1-1 .24Zm6 3.08a2.43 2.43 0 0 0 1.54-.43 1.36 1.36 0 0 0 .6-1.18 1.34 1.34 0 0 0-.14-.66 1.37 1.37 0 0 0-.43-.51 5.26 5.26 0 0 0-.94-.48 6.28 6.28 0 0 1-.78-.36.89.89 0 0 1-.31-.3.69.69 0 0 1 .14-.88 1.08 1.08 0 0 1 .7-.2 3.69 3.69 0 0 1 1.37.32l.3-.75a4 4 0 0 0-1.65-.35 2.16 2.16 0 0 0-1.38.4 1.34 1.34 0 0 0-.51 1.11 1.46 1.46 0 0 0 .32 1 2.81 2.81 0 0 0 1.12.71 3.56 3.56 0 0 1 1 .52.68.68 0 0 1 .24.53.7.7 0 0 1-.26.56 1.36 1.36 0 0 1-.83.2 3.61 3.61 0 0 1-.83-.1 4.36 4.36 0 0 1-.84-.28v.86a3.71 3.71 0 0 0 1.63.26ZM18.75 12.49a7.63 7.63 0 0 0-.42-2.5A6.32 6.32 0 0 0 15 6.23a7.19 7.19 0 0 0-3-.59 7 7 0 0 0-2.71.55A6.57 6.57 0 0 0 7 7.75a7.37 7.37 0 0 0-1.48 2.34 7.88 7.88 0 0 0-.54 3 9.05 9.05 0 0 0 .52 3.1A7.06 7.06 0 0 0 7 18.61a7 7 0 0 0 2.33 1.6 7.28 7.28 0 0 0 2.95.57 7.43 7.43 0 0 0 3.35-.71 7.24 7.24 0 0 0 2.5-2.07l.1-.12-.77-.66-.11.15a6.56 6.56 0 0 1-2.2 1.85 6.45 6.45 0 0 1-2.9.63 6.21 6.21 0 0 1-2.78-.59 5.8 5.8 0 0 1-1.93-1.54 6.55 6.55 0 0 1-1.16-2.18 8.15 8.15 0 0 1-.38-2.3h12.75ZM6 12.32a6.39 6.39 0 0 1 .33-1.62 6.7 6.7 0 0 1 1-1.95 5.89 5.89 0 0 1 1.9-1.56 5.32 5.32 0 0 1 2.68-.63 6.24 6.24 0 0 1 2.35.44 5.06 5.06 0 0 1 1.81 1.2 5.73 5.73 0 0 1 1.19 1.87 7 7 0 0 1 .46 2.27ZM32.59 6.22l-5.06 13.22-5.24-13.22h-1.15L27 20.68l-1.38 3.56a9.84 9.84 0 0 1-.42 1 3.31 3.31 0 0 1-.56.82 2.91 2.91 0 0 1-.8.59 2.87 2.87 0 0 1-1.69.16 4 4 0 0 1-.5-.11l-.17-.06-.3.9.16.06a3.11 3.11 0 0 0 .67.16 4 4 0 0 0 .7.06A3.49 3.49 0 0 0 25 27a5.05 5.05 0 0 0 1.4-2.08l7.25-18.44.07-.26ZM49.28 12.5a7.89 7.89 0 0 0-.41-2.5 6.53 6.53 0 0 0-1.26-2.2 6.35 6.35 0 0 0-2.13-1.56 7.43 7.43 0 0 0-5.73 0 6.67 6.67 0 0 0-2.22 1.56 7.26 7.26 0 0 0-1.47 2.36 8 8 0 0 0-.55 3 8.81 8.81 0 0 0 .49 2.99 7 7 0 0 0 1.49 2.45 6.82 6.82 0 0 0 2.32 1.61 7.45 7.45 0 0 0 2.95.57A7.06 7.06 0 0 0 48.68 18l.1-.13-.78-.66-.11.14a6.12 6.12 0 0 1-5.1 2.49 6.14 6.14 0 0 1-2.79-.59 5.84 5.84 0 0 1-1.94-1.55 6.69 6.69 0 0 1-1.16-2.17 7.86 7.86 0 0 1-.38-2.3h12.76Zm-12.7-.17a5.63 5.63 0 0 1 .33-1.62 6.44 6.44 0 0 1 1-2 6 6 0 0 1 1.82-1.57 5.5 5.5 0 0 1 2.67-.63 6.14 6.14 0 0 1 2.4.49 5.22 5.22 0 0 1 1.8 1.2 5.84 5.84 0 0 1 1.19 1.87 7.12 7.12 0 0 1 .46 2.28ZM62 14.93a3.25 3.25 0 0 0-1-1.12 6.39 6.39 0 0 0-1.45-.74c-.54-.19-1.1-.36-1.67-.5s-1.15-.29-1.65-.44a5.27 5.27 0 0 1-1.23-.55 2.12 2.12 0 0 1-.78-.82 2.88 2.88 0 0 1-.28-1.38 2.39 2.39 0 0 1 .33-1.31 2.89 2.89 0 0 1 .86-.88 3.64 3.64 0 0 1 1.15-.48 6.26 6.26 0 0 1 1.22-.15 4.9 4.9 0 0 1 2.13.44 4.57 4.57 0 0 1 1.56 1.3l.09.12.9-.5-.11-.15a5.29 5.29 0 0 0-4.57-2.13 5.85 5.85 0 0 0-1.66.24 5 5 0 0 0-1.48.69 3.79 3.79 0 0 0-1 1.18 3.45 3.45 0 0 0-.39 1.67 3.64 3.64 0 0 0 .27 1.58 3.11 3.11 0 0 0 .87 1.07 4.49 4.49 0 0 0 1.25.69 13.72 13.72 0 0 0 1.49.48l1.57.41a7.93 7.93 0 0 1 1.49.58 3.24 3.24 0 0 1 1.08.93 2.39 2.39 0 0 1 .42 1.48 2.7 2.7 0 0 1-.34 1.36 3.18 3.18 0 0 1-.89 1 4 4 0 0 1-1.23.61 4.41 4.41 0 0 1-1.34.21 5.15 5.15 0 0 1-4.38-2.06l-.1-.14-.85.56.1.14a5.68 5.68 0 0 0 2.22 1.81 7.21 7.21 0 0 0 3 .61 6.31 6.31 0 0 0 1.88-.29 4.63 4.63 0 0 0 1.52-.77 3.88 3.88 0 0 0 1.46-3.09 3.44 3.44 0 0 0-.46-1.66ZM97.53 7.34a5.35 5.35 0 0 0-4.3-1.7 6.23 6.23 0 0 0-3.07.81 5.21 5.21 0 0 0-1.85 1.67 5 5 0 0 0 0-.65c0-.5 0-.92-.09-1.3V6h-2.41v.2c0 .48.07 1 .09 1.65s0 1.12 0 1.51v11.43h2.5v-7.57a7.3 7.3 0 0 1 .36-2.46 5 5 0 0 1 1-1.7 3.86 3.86 0 0 1 1.37-1 4.15 4.15 0 0 1 1.56-.33 4.22 4.22 0 0 1 1.85.36 2.84 2.84 0 0 1 1.17 1 4.11 4.11 0 0 1 .61 1.54 10.68 10.68 0 0 1 .19 2v8.14H99v-9a6.62 6.62 0 0 0-1.47-4.43Z" fill="#3f403f"/>
  <path d="M70.84 13.22a4.19 4.19 0 1 0 4.22-4.08 1.3 1.3 0 0 1 .85.81c.23.76-.39 1.63-1.45 1.93a1.78 1.78 0 0 1-2.31-.82 1.19 1.19 0 0 1 .09-.89 4 4 0 0 0-1.4 3.05" fill="#9e216c"/>
  <path d="M75 5.06a8.27 8.27 0 0 0-8.38 8.15 8.38 8.38 0 0 0 16.76 0A8.27 8.27 0 0 0 75 5.06Zm0 14.37a6.3 6.3 0 0 1-6.39-6.22 6.39 6.39 0 0 1 12.78 0A6.33 6.33 0 0 1 75 19.43Z" fill="#3f403f"/>
</svg>